<mxfile host="app.diagrams.net" modified="2023-11-21T19:08:18.678Z" agent="Mozilla/5.0 (Windows NT 10.0; Win64; x64) AppleWebKit/537.36 (KHTML, like Gecko) Chrome/119.0.0.0 Safari/537.36 Edg/119.0.0.0" etag="4V7cWeJwlQDjyYXB9ZFA" version="22.1.3" type="github">
  <diagram id="C5RBs43oDa-KdzZeNtuy" name="Page-1">
    <mxGraphModel dx="1386" dy="793" grid="1" gridSize="10" guides="1" tooltips="1" connect="1" arrows="1" fold="1" page="1" pageScale="1" pageWidth="827" pageHeight="1169" math="0" shadow="0">
      <root>
        <mxCell id="WIyWlLk6GJQsqaUBKTNV-0" />
        <mxCell id="WIyWlLk6GJQsqaUBKTNV-1" parent="WIyWlLk6GJQsqaUBKTNV-0" />
        <mxCell id="Oh_dcSMYFbJUsM6yjgti-0" value="Начало" style="strokeWidth=2;html=1;shape=mxgraph.flowchart.start_1;whiteSpace=wrap;" vertex="1" parent="WIyWlLk6GJQsqaUBKTNV-1">
          <mxGeometry x="350" y="30" width="100" height="60" as="geometry" />
        </mxCell>
        <mxCell id="Oh_dcSMYFbJUsM6yjgti-2" value="" style="endArrow=classic;html=1;rounded=0;" edge="1" parent="WIyWlLk6GJQsqaUBKTNV-1">
          <mxGeometry width="50" height="50" relative="1" as="geometry">
            <mxPoint x="400" y="90" as="sourcePoint" />
            <mxPoint x="400" y="130" as="targetPoint" />
          </mxGeometry>
        </mxCell>
        <mxCell id="Oh_dcSMYFbJUsM6yjgti-3" value="a = -20&lt;br&gt;b = 20&lt;br&gt;N = 5&lt;br&gt;i = 0&lt;br&gt;S = 0" style="rounded=0;whiteSpace=wrap;html=1;" vertex="1" parent="WIyWlLk6GJQsqaUBKTNV-1">
          <mxGeometry x="340" y="130" width="120" height="80" as="geometry" />
        </mxCell>
        <mxCell id="Oh_dcSMYFbJUsM6yjgti-5" value="" style="endArrow=classic;html=1;rounded=0;exitX=0.5;exitY=1;exitDx=0;exitDy=0;" edge="1" parent="WIyWlLk6GJQsqaUBKTNV-1" source="Oh_dcSMYFbJUsM6yjgti-3">
          <mxGeometry width="50" height="50" relative="1" as="geometry">
            <mxPoint x="399.76" y="220" as="sourcePoint" />
            <mxPoint x="400" y="250" as="targetPoint" />
          </mxGeometry>
        </mxCell>
        <mxCell id="Oh_dcSMYFbJUsM6yjgti-6" value="i &amp;lt; N" style="shape=hexagon;perimeter=hexagonPerimeter2;whiteSpace=wrap;html=1;fixedSize=1;" vertex="1" parent="WIyWlLk6GJQsqaUBKTNV-1">
          <mxGeometry x="340" y="320" width="120" height="30" as="geometry" />
        </mxCell>
        <mxCell id="Oh_dcSMYFbJUsM6yjgti-11" value="" style="edgeStyle=segmentEdgeStyle;endArrow=classic;html=1;curved=0;rounded=0;endSize=8;startSize=8;exitX=1;exitY=0.5;exitDx=0;exitDy=0;entryX=0.458;entryY=0.025;entryDx=0;entryDy=0;entryPerimeter=0;" edge="1" parent="WIyWlLk6GJQsqaUBKTNV-1" source="Oh_dcSMYFbJUsM6yjgti-6" target="Oh_dcSMYFbJUsM6yjgti-12">
          <mxGeometry width="50" height="50" relative="1" as="geometry">
            <mxPoint x="440" y="360" as="sourcePoint" />
            <mxPoint x="520" y="370" as="targetPoint" />
            <Array as="points">
              <mxPoint x="520" y="335" />
            </Array>
          </mxGeometry>
        </mxCell>
        <mxCell id="Oh_dcSMYFbJUsM6yjgti-12" value="c = a + rand()%(b-a-1)" style="rounded=0;whiteSpace=wrap;html=1;" vertex="1" parent="WIyWlLk6GJQsqaUBKTNV-1">
          <mxGeometry x="460" y="400" width="130" height="40" as="geometry" />
        </mxCell>
        <mxCell id="Oh_dcSMYFbJUsM6yjgti-14" value="&amp;lt;cstdlib&amp;gt;" style="shape=process;whiteSpace=wrap;html=1;backgroundOutline=1;size=0.08333333333333333;" vertex="1" parent="WIyWlLk6GJQsqaUBKTNV-1">
          <mxGeometry x="340" y="250" width="120" height="30" as="geometry" />
        </mxCell>
        <mxCell id="Oh_dcSMYFbJUsM6yjgti-15" value="" style="endArrow=classic;html=1;rounded=0;exitX=0.5;exitY=1;exitDx=0;exitDy=0;" edge="1" parent="WIyWlLk6GJQsqaUBKTNV-1">
          <mxGeometry width="50" height="50" relative="1" as="geometry">
            <mxPoint x="399.76" y="280" as="sourcePoint" />
            <mxPoint x="399.76" y="320" as="targetPoint" />
          </mxGeometry>
        </mxCell>
        <mxCell id="Oh_dcSMYFbJUsM6yjgti-16" value="" style="endArrow=classic;html=1;rounded=0;exitX=0.462;exitY=0.986;exitDx=0;exitDy=0;exitPerimeter=0;" edge="1" parent="WIyWlLk6GJQsqaUBKTNV-1" source="Oh_dcSMYFbJUsM6yjgti-12">
          <mxGeometry width="50" height="50" relative="1" as="geometry">
            <mxPoint x="480" y="430" as="sourcePoint" />
            <mxPoint x="520" y="480" as="targetPoint" />
            <Array as="points">
              <mxPoint x="520" y="450" />
            </Array>
          </mxGeometry>
        </mxCell>
        <mxCell id="Oh_dcSMYFbJUsM6yjgti-17" value="c &amp;gt;= N" style="rhombus;whiteSpace=wrap;html=1;" vertex="1" parent="WIyWlLk6GJQsqaUBKTNV-1">
          <mxGeometry x="455" y="480" width="130" height="40" as="geometry" />
        </mxCell>
        <mxCell id="Oh_dcSMYFbJUsM6yjgti-19" value="" style="edgeStyle=segmentEdgeStyle;endArrow=classic;html=1;curved=0;rounded=0;endSize=8;startSize=8;exitX=1;exitY=0.5;exitDx=0;exitDy=0;entryX=0.462;entryY=-0.071;entryDx=0;entryDy=0;entryPerimeter=0;" edge="1" parent="WIyWlLk6GJQsqaUBKTNV-1">
          <mxGeometry width="50" height="50" relative="1" as="geometry">
            <mxPoint x="585" y="500" as="sourcePoint" />
            <mxPoint x="625.06" y="547.16" as="targetPoint" />
            <Array as="points">
              <mxPoint x="625" y="500" />
            </Array>
          </mxGeometry>
        </mxCell>
        <mxCell id="Oh_dcSMYFbJUsM6yjgti-20" value="S = S + c" style="rounded=0;whiteSpace=wrap;html=1;" vertex="1" parent="WIyWlLk6GJQsqaUBKTNV-1">
          <mxGeometry x="560" y="548" width="130" height="40" as="geometry" />
        </mxCell>
        <mxCell id="Oh_dcSMYFbJUsM6yjgti-23" value="" style="endArrow=none;html=1;rounded=0;entryX=0.5;entryY=1;entryDx=0;entryDy=0;" edge="1" parent="WIyWlLk6GJQsqaUBKTNV-1" target="Oh_dcSMYFbJUsM6yjgti-20">
          <mxGeometry width="50" height="50" relative="1" as="geometry">
            <mxPoint x="520" y="640" as="sourcePoint" />
            <mxPoint x="490" y="580" as="targetPoint" />
            <Array as="points">
              <mxPoint x="625" y="640" />
            </Array>
          </mxGeometry>
        </mxCell>
        <mxCell id="Oh_dcSMYFbJUsM6yjgti-24" value="" style="endArrow=none;html=1;rounded=0;entryX=0;entryY=0.5;entryDx=0;entryDy=0;" edge="1" parent="WIyWlLk6GJQsqaUBKTNV-1" target="Oh_dcSMYFbJUsM6yjgti-17">
          <mxGeometry width="50" height="50" relative="1" as="geometry">
            <mxPoint x="520" y="640" as="sourcePoint" />
            <mxPoint x="490" y="580" as="targetPoint" />
            <Array as="points">
              <mxPoint x="410" y="640" />
              <mxPoint x="410" y="500" />
            </Array>
          </mxGeometry>
        </mxCell>
        <mxCell id="Oh_dcSMYFbJUsM6yjgti-25" value="" style="shape=waypoint;sketch=0;fillStyle=solid;size=6;pointerEvents=1;points=[];fillColor=none;resizable=0;rotatable=0;perimeter=centerPerimeter;snapToPoint=1;" vertex="1" parent="WIyWlLk6GJQsqaUBKTNV-1">
          <mxGeometry x="510" y="630" width="20" height="20" as="geometry" />
        </mxCell>
        <mxCell id="Oh_dcSMYFbJUsM6yjgti-26" value="" style="edgeStyle=segmentEdgeStyle;endArrow=classic;html=1;curved=0;rounded=0;endSize=8;startSize=8;entryX=0;entryY=0.5;entryDx=0;entryDy=0;" edge="1" parent="WIyWlLk6GJQsqaUBKTNV-1" source="Oh_dcSMYFbJUsM6yjgti-25" target="Oh_dcSMYFbJUsM6yjgti-6">
          <mxGeometry width="50" height="50" relative="1" as="geometry">
            <mxPoint x="495" y="700" as="sourcePoint" />
            <mxPoint x="240" y="340" as="targetPoint" />
            <Array as="points">
              <mxPoint x="520" y="680" />
              <mxPoint x="280" y="680" />
              <mxPoint x="280" y="335" />
            </Array>
          </mxGeometry>
        </mxCell>
        <mxCell id="Oh_dcSMYFbJUsM6yjgti-27" value="" style="shape=waypoint;sketch=0;fillStyle=solid;size=6;pointerEvents=1;points=[];fillColor=none;resizable=0;rotatable=0;perimeter=centerPerimeter;snapToPoint=1;" vertex="1" parent="WIyWlLk6GJQsqaUBKTNV-1">
          <mxGeometry x="390" y="670" width="20" height="20" as="geometry" />
        </mxCell>
        <mxCell id="Oh_dcSMYFbJUsM6yjgti-29" value="" style="endArrow=classic;html=1;rounded=0;" edge="1" parent="WIyWlLk6GJQsqaUBKTNV-1" source="Oh_dcSMYFbJUsM6yjgti-27">
          <mxGeometry width="50" height="50" relative="1" as="geometry">
            <mxPoint x="440" y="630" as="sourcePoint" />
            <mxPoint x="400" y="720" as="targetPoint" />
          </mxGeometry>
        </mxCell>
        <mxCell id="Oh_dcSMYFbJUsM6yjgti-30" value="S" style="shape=parallelogram;perimeter=parallelogramPerimeter;whiteSpace=wrap;html=1;fixedSize=1;" vertex="1" parent="WIyWlLk6GJQsqaUBKTNV-1">
          <mxGeometry x="360" y="720" width="80" height="20" as="geometry" />
        </mxCell>
        <mxCell id="Oh_dcSMYFbJUsM6yjgti-31" value="" style="endArrow=classic;html=1;rounded=0;" edge="1" parent="WIyWlLk6GJQsqaUBKTNV-1">
          <mxGeometry width="50" height="50" relative="1" as="geometry">
            <mxPoint x="400" y="740" as="sourcePoint" />
            <mxPoint x="400" y="780" as="targetPoint" />
          </mxGeometry>
        </mxCell>
        <mxCell id="Oh_dcSMYFbJUsM6yjgti-32" value="Конец" style="ellipse;whiteSpace=wrap;html=1;" vertex="1" parent="WIyWlLk6GJQsqaUBKTNV-1">
          <mxGeometry x="340" y="780" width="120" height="50" as="geometry" />
        </mxCell>
      </root>
    </mxGraphModel>
  </diagram>
</mxfile>
